<svg width="310" height="310" viewBox="0 0 310 310" fill="none" xmlns="http://www.w3.org/2000/svg">
<g clip-path="url(#clip0_32_28)">
<rect x="-0.24707" y="160.869" width="27.3628" height="167.707" rx="6.84742" transform="rotate(40 -0.24707 160.869)" fill="#8278F1"/>
<rect x="35.2769" y="140.384" width="27.3628" height="167.707" rx="6.84741" transform="rotate(35 35.2769 140.384)" fill="#8278F1"/>
<rect x="70.8516" y="121.714" width="27.3628" height="167.707" rx="6.84742" transform="rotate(30 70.8516 121.714)" fill="#8278F1"/>
<rect x="106.289" y="103.994" width="27.3628" height="167.707" rx="6.84741" transform="rotate(25 106.289 103.994)" fill="#8278F1"/>
<rect x="141.636" y="87.2129" width="27.3628" height="167.707" rx="6.84741" transform="rotate(20 141.636 87.2129)" fill="#8278F1"/>
<rect x="176.94" y="71.356" width="27.3628" height="167.707" rx="6.84742" transform="rotate(15 176.94 71.356)" fill="#8278F1"/>
<rect x="212.48" y="57.2646" width="27.3628" height="167.707" rx="6.84742" transform="rotate(10 212.48 57.2646)" fill="#8278F1"/>
<rect x="248.079" y="44.0708" width="27.3628" height="167.707" rx="6.84741" transform="rotate(5 248.079 44.0708)" fill="#8278F1"/>
<rect x="283.791" y="31.7598" width="27.3628" height="167.707" rx="6.84742" fill="#8278F1"/>
</g>
<defs>
<clipPath id="clip0_32_28">
<rect width="310" height="310" fill="white"/>
</clipPath>
</defs>
</svg>
